<?xml version="1.0" ?>
<!DOCTYPE svg  PUBLIC '-//W3C//DTD SVG 1.1//EN'  'http://www.w3.org/Graphics/SVG/1.1/DTD/svg11.dtd'>
<!-- Uploaded to: SVG Repo, www.svgrepo.com, Generator: SVG Repo Mixer Tools -->
<svg fill="#000000" width="800px" height="800px" viewBox="0 0 32 32" style="fill-rule:evenodd;clip-rule:evenodd;stroke-linejoin:round;stroke-miterlimit:2;" version="1.1" xml:space="preserve" xmlns="http://www.w3.org/2000/svg" xmlns:serif="http://www.serif.com/" xmlns:xlink="http://www.w3.org/1999/xlink">
<g transform="matrix(1,0,0,1,-288,0)">
<g transform="matrix(0.659966,0.659966,-0.707107,0.707107,147.255,-165.504)">
<path d="M265.071,9.908C265.071,9.331 264.805,8.782 264.34,8.402C262.917,7.24 259.755,4.658 257.911,3.152C257.103,2.493 255.897,2.493 255.089,3.152C253.245,4.658 250.083,7.24 248.66,8.402C248.195,8.782 247.929,9.331 247.929,9.908C247.929,12.936 247.929,22.745 247.929,27C247.929,27.53 248.154,28.039 248.556,28.414C248.958,28.789 249.503,29 250.071,29C253.365,29 259.635,29 262.929,29C263.497,29 264.042,28.789 264.444,28.414C264.846,28.039 265.071,27.53 265.071,27C265.071,22.745 265.071,12.936 265.071,9.908Z" style="fill:rgb(144,224,239);"/>
</g>
<g transform="matrix(0.707107,0.707107,-0.707107,0.707107,135.517,-180.07)">
<circle cx="258" cy="12" r="2" style="fill:rgb(144,224,239);"/>
</g>
<path d="M315.551,17.006C316.163,16.394 316.48,15.548 316.423,14.685L315.893,6.73C315.793,5.23 314.598,4.036 313.099,3.936L305.144,3.406C304.281,3.348 303.435,3.666 302.823,4.278C300.681,6.42 293.746,13.355 290.737,16.364C290.174,16.927 289.858,17.69 289.858,18.485C289.858,19.281 290.174,20.044 290.737,20.607L299.222,29.092C299.785,29.655 300.548,29.971 301.343,29.971C302.139,29.971 302.902,29.655 303.465,29.092L315.551,17.006ZM314.137,15.592L302.051,27.678C301.863,27.865 301.609,27.971 301.343,27.971C301.078,27.971 300.824,27.865 300.636,27.678C300.636,27.678 292.151,19.192 292.151,19.192C291.963,19.005 291.858,18.751 291.858,18.485C291.858,18.22 291.963,17.966 292.151,17.778L304.237,5.692C304.441,5.488 304.723,5.382 305.011,5.401C305.011,5.401 312.966,5.932 312.966,5.932C313.466,5.965 313.864,6.363 313.897,6.863L314.427,14.818C314.447,15.106 314.341,15.388 314.137,15.592ZM302.758,21.314C303.538,22.094 303.538,23.362 302.758,24.142C301.977,24.923 300.71,24.923 299.929,24.142C299.149,23.362 299.149,22.094 299.929,21.314C300.71,20.533 301.977,20.533 302.758,21.314ZM306.152,16.788L296.252,18.203C295.706,18.281 295.326,18.788 295.404,19.334C295.482,19.88 295.989,20.26 296.535,20.182L306.435,18.768C306.981,18.69 307.361,18.183 307.283,17.637C307.205,17.09 306.698,16.71 306.152,16.788ZM302.787,12.799C303.567,13.58 303.567,14.847 302.787,15.628C302.006,16.408 300.739,16.408 299.959,15.628C299.178,14.847 299.178,13.58 299.959,12.799C300.739,12.019 302.006,12.019 302.787,12.799ZM311.243,8.586C312.023,9.366 312.023,10.634 311.243,11.414C310.462,12.195 309.195,12.195 308.414,11.414C307.634,10.634 307.634,9.366 308.414,8.586C309.195,7.805 310.462,7.805 311.243,8.586Z" style="fill:rgb(25,144,167);"/>
</g>
</svg>